<?xml version="1.0" encoding="utf-8"?>
<!-- Generator: Adobe Illustrator 26.0.1, SVG Export Plug-In . SVG Version: 6.00 Build 0)  -->
<svg version="1.1" id="Layer_1" xmlns="http://www.w3.org/2000/svg" xmlns:xlink="http://www.w3.org/1999/xlink" x="0px" y="0px"
	 viewBox="0 0 127 89" style="enable-background:new 0 0 127 89;" xml:space="preserve">
<style type="text/css">
	.st0{fill:url(#SVGID_1_);}
	.st1{fill:#FFFFFF;}
</style>
<linearGradient id="SVGID_1_" gradientUnits="userSpaceOnUse" x1="725.3038" y1="897.1125" x2="1000.542" y2="897.1125" gradientTransform="matrix(0.719 0.695 0.695 -0.719 -1189.5458 84.4121)">
	<stop  offset="0.3817" style="stop-color:#9841FF"/>
	<stop  offset="0.694" style="stop-color:#009DFF"/>
	<stop  offset="0.8411" style="stop-color:#0CD6E9"/>
</linearGradient>
<polygon class="st0" points="69.1,244.7 -128.8,53.5 62.4,-144.3 260.4,46.8 "/>
<path class="st1" d="M38.2,60.7c0-2.8,0-5.4,0-8.3c4.5-2.7,8.8-5.1,13.5-7.9c-4.7-2.8-8.9-5.2-13.5-7.9c0-5.1,0-10.3,0-15.7
	c-6.6,5.5-12.9,20.4-7.5,35.4c4.7,13.1,20,27.3,42.6,21.9c0,3.3,0,6.6,0,9.8c-15.2,4.9-42.5-2-51.7-28.1C12.8,35.2,26.2,10,48.4,2.3
	c0,8.8,0,17.6,0,26.7c5,2.9,10,5.8,15.1,8.8c5-2.9,10-5.8,14.9-8.7c0-3.3,0-6.6,0-10.2c0.6,0.3,1.1,0.4,1.5,0.6
	c3.1,2,5.8,4.6,7.9,7.5c0.5,0.8,0.8,1.8,1,2.8c0.1,2.2,0,4.5,0,6.6c-4.5,2.7-8.8,5.1-13.5,7.9c4.7,2.8,8.9,5.2,13.5,7.9
	c0,5.2,0,10.3,0,15.6C95,63,101.4,48,96.5,33.5C91.4,17.7,74.4,5.7,53.8,10.8c0-3.3,0-6.6,0-10.2c9.2-2.1,18.4-1.3,27.1,2.4
	c11.7,5,20,13.4,24.3,25.4c9.2,25.3-4.5,50.7-26.7,58.2c0-8.9,0-17.8,0-26.7c-5.1-2.9-10-5.8-15.1-8.7c-5,2.9-10,5.8-14.9,8.7
	c0,3.3,0,6.6,0,10.3C44.1,68,41,64.8,38.2,60.7z"/>
</svg>
