<?xml version="1.0" encoding="utf-8"?>
<!-- Generator: Adobe Illustrator 26.0.1, SVG Export Plug-In . SVG Version: 6.00 Build 0)  -->
<svg version="1.1" id="Layer_1" xmlns="http://www.w3.org/2000/svg" xmlns:xlink="http://www.w3.org/1999/xlink" x="0px" y="0px"
	 viewBox="0 0 127 89" style="enable-background:new 0 0 127 89;" xml:space="preserve">
<style type="text/css">
	
		.st0{clip-path:url(#SVGID_00000143616645689103924350000000937072893088836233_);fill:url(#SVGID_00000103971435441597624410000015824184876806322829_);}
</style>
<g>
	<g>
		<g>
			<defs>
				<path id="SVGID_1_" d="M39.7,59.8c0-2.6,0-5.1,0-7.8c4.2-2.5,8.3-4.8,12.7-7.4c-4.4-2.6-8.4-4.9-12.7-7.4c0-4.8,0-9.7,0-14.8
					c-6.2,5.2-12.1,19.2-7.1,33.3C37,68,51.4,81.4,72.7,76.3c0,3.1,0,6.2,0,9.2C58.4,90.1,32.7,83.6,24,59
					c-8.2-23.3,4.4-47,25.3-54.2c0,8.3,0,16.6,0,25.1c4.7,2.7,9.4,5.5,14.2,8.3c4.7-2.7,9.4-5.5,14-8.2c0-3.1,0-6.2,0-9.6
					c0.6,0.3,1,0.4,1.4,0.6c2.9,1.9,5.5,4.3,7.4,7.1c0.5,0.8,0.8,1.7,0.9,2.6c0.1,2.1,0,4.2,0,6.2c-4.2,2.5-8.3,4.8-12.7,7.4
					c4.4,2.6,8.4,4.9,12.7,7.4c0,4.9,0,9.7,0,14.7c6-4.5,12-18.6,7.4-32.3C89.8,19.3,73.8,8,54.4,12.8c0-3.1,0-6.2,0-9.6
					C63.1,1.2,71.7,2,79.9,5.5c11,4.7,18.8,12.6,22.9,23.9c8.7,23.8-4.2,47.7-25.1,54.8c0-8.4,0-16.8,0-25.1
					c-4.8-2.7-9.4-5.5-14.2-8.2c-4.7,2.7-9.4,5.5-14,8.2c0,3.1,0,6.2,0,9.7C45.2,66.6,42.3,63.6,39.7,59.8z"/>
			</defs>
			<clipPath id="SVGID_00000078739020344802525860000003445497198365681068_">
				<use xlink:href="#SVGID_1_"  style="overflow:visible;"/>
			</clipPath>
			
				<linearGradient id="SVGID_00000173134201257865904190000002747933163249106585_" gradientUnits="userSpaceOnUse" x1="609.4828" y1="-376.3393" x2="744.4439" y2="-376.3393" gradientTransform="matrix(0.719 0.695 -0.695 0.719 -688.2548 -155.4629)">
				<stop  offset="0.3817" style="stop-color:#9841FF"/>
				<stop  offset="0.694" style="stop-color:#009DFF"/>
				<stop  offset="0.8411" style="stop-color:#0CD6E9"/>
			</linearGradient>
			
				<polygon style="clip-path:url(#SVGID_00000078739020344802525860000003445497198365681068_);fill:url(#SVGID_00000173134201257865904190000002747933163249106585_);" points="
				67.3,145.3 -29.8,51.5 64,-45.5 161.1,48.2 			"/>
		</g>
	</g>
</g>
</svg>
