<?xml version="1.0" encoding="utf-8"?>
<!-- Generator: Adobe Illustrator 26.0.1, SVG Export Plug-In . SVG Version: 6.00 Build 0)  -->
<svg version="1.1" id="Layer_1" xmlns="http://www.w3.org/2000/svg" xmlns:xlink="http://www.w3.org/1999/xlink" x="0px" y="0px"
	 viewBox="0 0 215 100" style="enable-background:new 0 0 215 100;" xml:space="preserve">
<style type="text/css">
	
		.st0{clip-path:url(#SVGID_00000085221165817377511670000005873810800835397507_);fill:url(#SVGID_00000030466217456808026560000007401934773700276387_);}
	.st1{fill:#FFFFFF;}
	.st2{fill:#9841FF;}
</style>
<g>
	<g>
		<g>
			<defs>
				<path id="SVGID_1_" d="M19.4,61.7c0-2,0-3.9,0-6c3.2-1.9,6.4-3.7,9.8-5.7c-3.4-2-6.5-3.8-9.8-5.7c0-3.7,0-7.5,0-11.4
					c-4.8,4-9.3,14.8-5.5,25.6c3.4,9.5,14.5,19.8,30.9,15.9c0,2.4,0,4.8,0,7.1C33.8,85,14,80,7.3,61.1C1,43.2,10.7,24.9,26.8,19.4
					c0,6.4,0,12.8,0,19.3c3.6,2.1,7.2,4.2,10.9,6.4c3.6-2.1,7.2-4.2,10.8-6.3c0-2.4,0-4.8,0-7.4c0.5,0.2,0.8,0.3,1.1,0.5
					c2.2,1.5,4.2,3.3,5.7,5.5c0.4,0.6,0.6,1.3,0.7,2c0.1,1.6,0,3.2,0,4.8c-3.2,1.9-6.4,3.7-9.8,5.7c3.4,2,6.5,3.8,9.8,5.7
					c0,3.8,0,7.5,0,11.3c4.6-3.5,9.2-14.3,5.7-24.9c-3.8-11.5-16.1-20.2-31-16.5c0-2.4,0-4.8,0-7.4c6.7-1.5,13.3-0.9,19.6,1.8
					c8.5,3.6,14.5,9.7,17.6,18.4c6.7,18.3-3.2,36.7-19.3,42.2c0-6.5,0-12.9,0-19.3c-3.7-2.1-7.2-4.2-10.9-6.3
					c-3.6,2.1-7.2,4.2-10.8,6.3c0,2.4,0,4.8,0,7.5C23.6,66.9,21.4,64.6,19.4,61.7z"/>
			</defs>
			<clipPath id="SVGID_00000000937144193384470960000015804756129432843910_">
				<use xlink:href="#SVGID_1_"  style="overflow:visible;"/>
			</clipPath>
			
				<linearGradient id="SVGID_00000085211188723907526480000008959378371451476156_" gradientUnits="userSpaceOnUse" x1="619.0004" y1="-322.7842" x2="722.8949" y2="-322.7842" gradientTransform="matrix(0.719 0.695 -0.695 0.719 -671.7208 -184.3569)">
				<stop  offset="0.3817" style="stop-color:#9841FF"/>
				<stop  offset="0.694" style="stop-color:#009DFF"/>
				<stop  offset="0.8411" style="stop-color:#0CD6E9"/>
			</linearGradient>
			
				<polygon style="clip-path:url(#SVGID_00000000937144193384470960000015804756129432843910_);fill:url(#SVGID_00000085211188723907526480000008959378371451476156_);" points="
				40.6,127.5 -34.1,55.3 38.1,-19.4 112.8,52.8 			"/>
		</g>
	</g>
</g>
<g>
	<g>
		<g>
			<g>
				<path class="st1" d="M61.1,51.2V35.6c0-5.4,2.7-8.2,8.2-8.2h13.1l3.6,2.8v4.5H69.7c-0.3,0-0.5,0.2-0.5,0.5v16.4
					c0,0.3,0.2,0.5,0.5,0.5h9.1v-5.4h-5.2v-7.3h13.3v20H69.3C63.8,59.4,61.1,56.7,61.1,51.2z"/>
				<path class="st1" d="M96.5,59.4c-5.2,0-7.8-2.5-7.8-7.6s2.6-7.6,7.8-7.6h5.3V42c0-0.4-0.2-0.6-0.6-0.6h-9.8v-4.3l3.2-2.4h7.1
					c5.2,0,7.8,2.6,7.8,7.8v16.9H96.5z M96.4,52.1c0,0.4,0.2,0.6,0.6,0.6h4.8v-2.6H97c-0.4,0-0.6,0.2-0.6,0.6V52.1z"/>
				<path class="st1" d="M112.9,59.4V34.7h28.2c5.2,0,7.8,2.6,7.8,7.8v16.9h-7.8V42.1c0-0.4-0.2-0.6-0.6-0.6h-5.8v18H127v-18h-6.4
					v18L112.9,59.4L112.9,59.4z"/>
				<path class="st1" d="M151.9,51.6v-9.1c0-5.2,2.6-7.8,7.8-7.8h6c5.2,0,7.8,2.6,7.8,7.8v7.4h-13.9v2.2c0,0.4,0.2,0.6,0.6,0.6h12.3
					V57l-3.2,2.4h-9.7C154.5,59.4,151.9,56.8,151.9,51.6z M159.6,44h6.1v-2c0-0.4-0.2-0.6-0.6-0.6h-4.9c-0.4,0-0.6,0.2-0.6,0.6V44z"
					/>
				<path class="st1" d="M176.5,59.4V38.1c1.2-2.2,3.5-3.3,6.9-3.3h5.2l3.2,2.4v4.3h-6.1c-0.7,0-1.2,0.2-1.4,0.5v17.5L176.5,59.4
					L176.5,59.4L176.5,59.4z"/>
				<path class="st1" d="M192.6,57v-4.3h10.7c0.5,0,0.7-0.3,0.7-1s-0.2-1.1-0.7-1.2l-4.7-0.8c-4-0.7-6-3-6-7.1
					c0-5.2,2.6-7.8,7.8-7.8h6.9l3.2,2.4v4.3H201c-0.5,0-0.7,0.3-0.7,1c0,0.9,0.2,1.4,0.7,1.4l4.7,0.8c4,0.6,5.9,2.9,5.9,6.9
					c0,5.2-2.6,7.8-7.8,7.8h-8L192.6,57z"/>
			</g>
		</g>
		<g>
			<g>
				<g>
					<path class="st1" d="M70.4,66.4v-1.8h8.9v1.8h-3.5v9.3h-2v-9.3H70.4z"/>
					<path class="st1" d="M82.4,75.7v-11h7.4v1.8h-5.5v2.7h5V71h-5v2.9h5.5v1.8C89.8,75.7,82.4,75.7,82.4,75.7z"/>
					<path class="st1" d="M93.1,73v-5.8c0-1.7,0.9-2.6,2.6-2.6h4.4l0.9,0.7v1h-5.2c-0.5,0-0.7,0.2-0.7,0.7v6.1
						c0,0.5,0.2,0.7,0.7,0.7h5.2v1l-0.9,0.7h-4.4C93.9,75.7,93.1,74.8,93.1,73z"/>
					<path class="st1" d="M104.4,75.7v-11h2v4.4h4.7v-4.4h2v11h-2v-4.8h-4.7v4.8H104.4z"/>
					<path class="st1" d="M117,75.7v-11h2.1l4.9,7.9v-7.9h2v11h-2.1l-4.9-7.9v7.9H117z"/>
					<path class="st1" d="M129.8,73v-5.8c0-1.7,0.9-2.6,2.6-2.6h3.7c1.7,0,2.6,0.9,2.6,2.6V73c0,1.7-0.9,2.6-2.6,2.6h-3.7
						C130.7,75.7,129.8,74.8,129.8,73z M131.7,73.2c0,0.5,0.2,0.7,0.7,0.7h3.6c0.5,0,0.7-0.2,0.7-0.7v-6.1c0-0.5-0.2-0.7-0.7-0.7
						h-3.6c-0.5,0-0.7,0.2-0.7,0.7V73.2z"/>
					<path class="st1" d="M142.5,75.7v-11h2v9.2h5v1.8H142.5z"/>
					<path class="st1" d="M152.3,73v-5.8c0-1.7,0.9-2.6,2.6-2.6h3.7c1.7,0,2.6,0.9,2.6,2.6V73c0,1.7-0.9,2.6-2.6,2.6h-3.7
						C153.2,75.7,152.3,74.8,152.3,73z M154.3,73.2c0,0.5,0.2,0.7,0.7,0.7h3.6c0.5,0,0.7-0.2,0.7-0.7v-6.1c0-0.5-0.2-0.7-0.7-0.7
						H155c-0.5,0-0.7,0.2-0.7,0.7V73.2z"/>
					<path class="st1" d="M164.9,73v-5.8c0-1.7,0.9-2.6,2.6-2.6h4.7l0.9,0.7v1h-5.6c-0.5,0-0.7,0.2-0.7,0.7v6.1
						c0,0.5,0.2,0.7,0.7,0.7h4v-3.1h-2.3v-1.8h4.3v6.6h-6C165.7,75.7,164.9,74.8,164.9,73z"/>
					<path class="st1" d="M177.1,75.7v-11h2v11H177.1z"/>
					<path class="st1" d="M183.1,75.7v-11h7.4v1.8H185v2.7h5V71h-5v2.9h5.5v1.8C190.5,75.7,183.1,75.7,183.1,75.7z"/>
					<path class="st1" d="M193.4,74.9v-1h4.9c0.5,0,0.7-0.2,0.7-0.7V72c0-0.4-0.2-0.6-0.5-0.7l-3.2-0.7c-1.2-0.2-1.9-1.1-1.9-2.5
						v-0.9c0-1.7,0.9-2.6,2.6-2.6h3.7l0.9,0.7v1H196c-0.5,0-0.7,0.2-0.7,0.7v1.1c0,0.4,0.2,0.6,0.5,0.7l3.2,0.6
						c1.2,0.3,1.9,1.1,1.9,2.5v1c0,1.7-0.9,2.6-2.6,2.6h-4L193.4,74.9z"/>
				</g>
			</g>
		</g>
	</g>
</g>
<path class="st2" d="M177.1,29.7v1.7h-1.9v-4.9h1.9v1.7h0.8l1.8-1.7h2.5l-2.5,2.4l2.5,2.4h-2.5l-1.8-1.7h-0.8V29.7z"/>
<path class="st2" d="M188.3,28.7v0.4c0,1.8-1.5,2.4-3.3,2.4s-3.3-0.5-3.3-2.4v-0.4c0-1.8,1.5-2.4,3.3-2.4
	C186.9,26.4,188.3,26.9,188.3,28.7z M186.4,28.9c0-0.8-0.6-0.9-1.4-0.9c-0.8,0-1.4,0.2-1.4,0.9V29c0,0.8,0.6,0.9,1.4,1
	c0.8,0,1.4-0.2,1.4-1V28.9z"/>
<path class="st2" d="M188.9,26.5h5.7v1.2h-3.8v0.6h3.8v1.1h-3.8V30h3.8v1.2h-5.7V26.5z"/>
<path class="st2" d="M201.8,29.3c-0.1,1.6-1.6,2.1-3.3,2.1c-1.8,0-3.3-0.5-3.3-2.4v-0.4c0-1.8,1.5-2.4,3.3-2.4
	c1.7,0,3.2,0.5,3.3,2.1h-1.9c-0.2-0.5-0.7-0.6-1.4-0.6c-0.8,0-1.4,0.1-1.4,0.9V29c0,0.8,0.6,0.9,1.4,0.9c0.7,0,1.2-0.1,1.4-0.6
	H201.8z"/>
<path class="st2" d="M204.2,29.7v1.7h-1.9v-4.9h1.9v1.7h2.8v-1.7h1.9v4.9H207v-1.7H204.2z"/>
</svg>
