<?xml version="1.0" encoding="utf-8"?>
<!-- Generator: Adobe Illustrator 26.0.1, SVG Export Plug-In . SVG Version: 6.00 Build 0)  -->
<svg version="1.1" id="Layer_1" xmlns="http://www.w3.org/2000/svg" xmlns:xlink="http://www.w3.org/1999/xlink" x="0px" y="0px"
	 viewBox="0 0 215 100" style="enable-background:new 0 0 215 100;" xml:space="preserve">
<style type="text/css">
	.st0{clip-path:url(#SVGID_00000009581315295926486490000016811064806557469610_);}
	.st1{fill:none;stroke:#9841FF;stroke-width:7;}
	
		.st2{clip-path:url(#SVGID_00000085224936583741309070000007915001402841152952_);fill:url(#SVGID_00000124865581804832464250000013032179398265176967_);}
	.st3{fill:#FFFFFF;}
	.st4{fill:#9841FF;}
</style>
<g>
	<g>
		<defs>
			<rect id="SVGID_1_" x="-317" y="-105" width="215" height="100"/>
		</defs>
		<clipPath id="SVGID_00000066480673623663349370000009946441807918992306_">
			<use xlink:href="#SVGID_1_"  style="overflow:visible;"/>
		</clipPath>
		<g style="clip-path:url(#SVGID_00000066480673623663349370000009946441807918992306_);">
			<path class="st1" d="M-306-81.8l-2.5-5.9l6.3,1.1c6.1,1.1,13.1,4.5,18.2,9.8c3.5-5.3,7.7-10.1,12.9-14.2l5.3,4.3
				c-1.7,3.4-2.4,6.2-2.7,9.3c4.6-1.5,10.5-2.4,17.5-2l10.5,0.6l-8.8,5.8c-1.8,1.2-3.5,2.4-4.9,3.5c5.6,0,11.5,1.2,18.5,3.7l8.6,3.1
				l-8.5,3.4c-4,1.6-6.9,3.6-9.7,6.3c5.8,1.9,11.2,5.1,15.1,8.5l6.9,6l-9.2,0.1c-4.8,0.1-10.5,0.2-15.4,0.8
				c2.2,3.7,3.6,7.8,4.4,12.4l1.7,10.2l-7.6-7c-5.4-5.1-12.2-8.9-20.5-11.5l-3.6-1.1c-2.9,1.5-5.8,3.3-8.5,5.2l1,0.9l-1.9-0.2
				c-5.8,4.2-11.4,9.3-16.8,14.5l-1.3,1.3l-1.8-0.4c-2.7-0.6-5.1-1.2-7.3-1.9l-1.2-0.4l-0.7-1.1l-2.5-3.9l-0.2-0.3l-1.4-0.1
				l-7.4-0.7l-0.8-0.1l-0.7-0.4c-0.9-0.5-1.9-1.1-2.9-1.7c-0.9-0.6-1.9-1.1-2.9-1.7l-3.5-2.1l2.5-3.1c5.3-6.6,11.5-11.9,17-16.6
				c1-0.9,2.1-1.8,3.1-2.6c2-7.1,6-13.2,11.5-17.9C-302-72.4-304-77.1-306-81.8z"/>
			<path class="st1" d="M-231.2-63.2V-76h4.3v13c0,0.2,0.1,0.3,0.3,0.3h4.6c0.2,0,0.3-0.1,0.3-0.3v-13h4.3v12.8
				c0,2.9-1.5,4.4-4.4,4.4h-5.1C-229.7-58.8-231.2-60.2-231.2-63.2z"/>
			<path class="st1" d="M-213.5-58.8V-76h4.7l5.7,10v-10h4.3v17.2h-4.7l-5.8-10v10C-209.3-58.8-213.5-58.8-213.5-58.8z"/>
			<path class="st1" d="M-194.9-58.8V-76h4.3v17.2H-194.9z"/>
			<path class="st1" d="M-186.9-63.2v-8.4c0-2.9,1.5-4.4,4.4-4.4h7.1l1.9,1.5v2.4h-8.8c-0.2,0-0.3,0.1-0.3,0.3v8.9
				c0,0.2,0.1,0.3,0.3,0.3h4.9v-2.9h-2.8v-3.9h7.2v10.8h-9.5C-185.4-58.8-186.9-60.2-186.9-63.2z"/>
			<path class="st1" d="M-169.6-58.8V-76h4.3v17.2H-169.6z"/>
			<path class="st1" d="M-161.3-58.8V-76h4.7l5.7,10v-10h4.3v17.2h-4.7l-5.8-10v10C-157.1-58.8-161.3-58.8-161.3-58.8z"/>
			<path class="st1" d="M-142.6-58.8V-76h12.1v3.9h-7.7v2.6h7v3.9h-7v2.9h7.7v3.9C-130.5-58.8-142.6-58.8-142.6-58.8z"/>
			<path class="st1" d="M-255.1-27.5v-3.8h12.1c0.3,0,0.4-0.1,0.4-0.4v-2.7c0-0.4-0.2-0.6-0.5-0.6l-7.2-1.5
				c-3.2-0.6-4.9-2.8-4.9-6.5v-2.2c0-4.6,2.3-6.9,6.9-6.9h8.7l3,2.3v3.8h-11.3c-0.3,0-0.4,0.1-0.4,0.4v2.5c0,0.3,0.2,0.5,0.5,0.6
				l7.2,1.4c3.2,0.7,4.9,2.9,4.9,6.6v2.4c0,4.6-2.3,6.9-6.9,6.9h-9.4L-255.1-27.5z"/>
			<path class="st1" d="M-231.3-32v-13.2c0-4.6,2.3-6.9,6.9-6.9h8.7c4.6,0,6.9,2.3,6.9,6.9V-32c0,3.5-1.4,5.7-4.1,6.5l2.5,4.9
				l-0.8,1.4h-5.9l-3-5.8h-4.4C-229-25.2-231.3-27.5-231.3-32z M-224.5-31.7c0,0.3,0.1,0.4,0.4,0.4h8c0.3,0,0.4-0.1,0.4-0.4v-13.8
				c0-0.3-0.1-0.4-0.4-0.4h-8c-0.3,0-0.4,0.1-0.4,0.4V-31.7z"/>
			<path class="st1" d="M-203.3-32v-20h6.8v20.4c0,0.3,0.1,0.4,0.4,0.4h7.3c0.3,0,0.4-0.1,0.4-0.4V-52h6.8v20c0,4.6-2.3,6.9-6.9,6.9
				h-8C-201.1-25.2-203.3-27.5-203.3-32z"/>
			<path class="st1" d="M-178.2-26.4l7.6-25.7h10.1l7.6,25.7l-0.8,1.2h-5.7l-1.3-4.8h-9.7l-1.3,4.8h-5.7L-178.2-26.4z M-168.6-36.1
				h6.1l-2.8-9.9h-0.5L-168.6-36.1z"/>
			<path class="st1" d="M-149.1-25.2v-26.9h10.1c7.7,0,11.6,3.9,11.6,11.6v3.7c0,7.7-3.9,11.6-11.6,11.6
				C-139-25.2-149.1-25.2-149.1-25.2z M-142.4-31.3h3.7c3,0,4.4-1.5,4.4-4.5v-5.7c0-3-1.5-4.5-4.4-4.5h-3.7V-31.3z"/>
		</g>
		<use xlink:href="#SVGID_1_"  style="overflow:visible;fill:none;stroke:#9841FF;stroke-width:7;"/>
	</g>
</g>
<g>
	<g>
		<defs>
			<path id="SVGID_00000089564268909964089910000007946822867388768659_" d="M19.4,61.7c0-2,0-3.9,0-6c3.2-1.9,6.4-3.7,9.8-5.7
				c-3.4-2-6.5-3.8-9.8-5.7c0-3.7,0-7.5,0-11.4c-4.8,4-9.3,14.8-5.5,25.6c3.4,9.5,14.5,19.8,30.9,15.9c0,2.4,0,4.8,0,7.1
				C33.8,85,14,80,7.3,61.1C1,43.2,10.7,24.9,26.8,19.4c0,6.4,0,12.8,0,19.3c3.6,2.1,7.2,4.2,10.9,6.4c3.6-2.1,7.2-4.2,10.8-6.3
				c0-2.4,0-4.8,0-7.4c0.5,0.2,0.8,0.3,1.1,0.5c2.2,1.5,4.2,3.3,5.7,5.5c0.4,0.6,0.6,1.3,0.7,2c0.1,1.6,0,3.2,0,4.8
				c-3.2,1.9-6.4,3.7-9.8,5.7c3.4,2,6.5,3.8,9.8,5.7c0,3.8,0,7.5,0,11.3c4.6-3.5,9.2-14.3,5.7-24.9c-3.8-11.5-16.1-20.2-31-16.5
				c0-2.4,0-4.8,0-7.4c6.7-1.5,13.3-0.9,19.6,1.8c8.5,3.6,14.5,9.7,17.6,18.4c6.7,18.3-3.2,36.7-19.3,42.2c0-6.5,0-12.9,0-19.3
				c-3.7-2.1-7.2-4.2-10.9-6.3c-3.6,2.1-7.2,4.2-10.8,6.3c0,2.4,0,4.8,0,7.5C23.6,66.9,21.4,64.6,19.4,61.7z"/>
		</defs>
		<clipPath id="SVGID_00000144319188520873574140000010576958534463818153_">
			<use xlink:href="#SVGID_00000089564268909964089910000007946822867388768659_"  style="overflow:visible;"/>
		</clipPath>
		
			<linearGradient id="SVGID_00000124149618292950862710000017426189022824130467_" gradientUnits="userSpaceOnUse" x1="417.0891" y1="924.1759" x2="520.9836" y2="924.1759" gradientTransform="matrix(0.719 0.695 0.695 -0.719 -944.5138 388.3721)">
			<stop  offset="0.3817" style="stop-color:#9841FF"/>
			<stop  offset="0.694" style="stop-color:#009DFF"/>
			<stop  offset="0.8411" style="stop-color:#0CD6E9"/>
		</linearGradient>
		
			<polygon style="clip-path:url(#SVGID_00000144319188520873574140000010576958534463818153_);fill:url(#SVGID_00000124149618292950862710000017426189022824130467_);" points="
			40.6,127.5 -34.1,55.3 38.1,-19.4 112.8,52.8 		"/>
	</g>
</g>
<image style="overflow:visible;opacity:0.2;enable-background:new    ;" width="167" height="70" xlink:href="3BC05893.png"  transform="matrix(1 0 0 1 50.4375 15)">
</image>
<g>
	<g>
		<g>
			<g>
				<path class="st3" d="M61.1,51.2V35.6c0-5.4,2.7-8.2,8.2-8.2h13.1l3.6,2.8v4.5H69.7c-0.3,0-0.5,0.2-0.5,0.5v16.4
					c0,0.3,0.2,0.5,0.5,0.5h9.1v-5.4h-5.2v-7.3h13.3v20H69.3C63.8,59.4,61.1,56.7,61.1,51.2z"/>
				<path class="st3" d="M96.5,59.4c-5.2,0-7.8-2.5-7.8-7.6s2.6-7.6,7.8-7.6h5.3V42c0-0.4-0.2-0.6-0.6-0.6h-9.8v-4.3l3.2-2.4h7.1
					c5.2,0,7.8,2.6,7.8,7.8v16.9H96.5z M96.4,52.1c0,0.4,0.2,0.6,0.6,0.6h4.8v-2.6H97c-0.4,0-0.6,0.2-0.6,0.6V52.1z"/>
				<path class="st3" d="M112.9,59.4V34.7h28.2c5.2,0,7.8,2.6,7.8,7.8v16.9h-7.8V42.1c0-0.4-0.2-0.6-0.6-0.6h-5.8v18H127v-18h-6.4
					v18h-7.7V59.4z"/>
				<path class="st3" d="M151.9,51.6v-9.1c0-5.2,2.6-7.8,7.8-7.8h6c5.2,0,7.8,2.6,7.8,7.8v7.4h-13.9v2.2c0,0.4,0.2,0.6,0.6,0.6h12.3
					V57l-3.2,2.4h-9.7C154.5,59.4,151.9,56.8,151.9,51.6z M159.6,44h6.1v-2c0-0.4-0.2-0.6-0.6-0.6h-4.9c-0.4,0-0.6,0.2-0.6,0.6V44z"
					/>
				<path class="st3" d="M176.5,59.4V38.1c1.2-2.2,3.5-3.3,6.9-3.3h5.2l3.2,2.4v4.3h-6.1c-0.7,0-1.2,0.2-1.4,0.5v17.5h-7.8V59.4z"/>
				<path class="st3" d="M192.6,57v-4.3h10.7c0.5,0,0.7-0.3,0.7-1s-0.2-1.1-0.7-1.2l-4.7-0.8c-4-0.7-6-3-6-7.1
					c0-5.2,2.6-7.8,7.8-7.8h6.9l3.2,2.4v4.3H201c-0.5,0-0.7,0.3-0.7,1c0,0.9,0.2,1.4,0.7,1.4l4.7,0.8c4,0.6,5.9,2.9,5.9,6.9
					c0,5.2-2.6,7.8-7.8,7.8h-8L192.6,57z"/>
			</g>
		</g>
		<g>
			<g>
				<g>
					<path class="st3" d="M70.4,66.4v-1.8h8.9v1.8h-3.5v9.3h-2v-9.3H70.4z"/>
					<path class="st3" d="M82.4,75.7v-11h7.4v1.8h-5.5v2.7h5V71h-5v2.9h5.5v1.8H82.4z"/>
					<path class="st3" d="M93.1,73v-5.8c0-1.7,0.9-2.6,2.6-2.6h4.4l0.9,0.7v1h-5.2c-0.5,0-0.7,0.2-0.7,0.7v6.1
						c0,0.5,0.2,0.7,0.7,0.7h5.2v1l-0.9,0.7h-4.4C93.9,75.7,93.1,74.8,93.1,73z"/>
					<path class="st3" d="M104.4,75.7v-11h2v4.4h4.7v-4.4h2v11h-2v-4.8h-4.7v4.8H104.4z"/>
					<path class="st3" d="M117,75.7v-11h2.1l4.9,7.9v-7.9h2v11h-2.1l-4.9-7.9v7.9H117z"/>
					<path class="st3" d="M129.8,73v-5.8c0-1.7,0.9-2.6,2.6-2.6h3.7c1.7,0,2.6,0.9,2.6,2.6V73c0,1.7-0.9,2.6-2.6,2.6h-3.7
						C130.7,75.7,129.8,74.8,129.8,73z M131.7,73.2c0,0.5,0.2,0.7,0.7,0.7h3.6c0.5,0,0.7-0.2,0.7-0.7v-6.1c0-0.5-0.2-0.7-0.7-0.7
						h-3.6c-0.5,0-0.7,0.2-0.7,0.7V73.2z"/>
					<path class="st3" d="M142.5,75.7v-11h2v9.2h5v1.8H142.5z"/>
					<path class="st3" d="M152.3,73v-5.8c0-1.7,0.9-2.6,2.6-2.6h3.7c1.7,0,2.6,0.9,2.6,2.6V73c0,1.7-0.9,2.6-2.6,2.6h-3.7
						C153.2,75.7,152.3,74.8,152.3,73z M154.3,73.2c0,0.5,0.2,0.7,0.7,0.7h3.6c0.5,0,0.7-0.2,0.7-0.7v-6.1c0-0.5-0.2-0.7-0.7-0.7
						H155c-0.5,0-0.7,0.2-0.7,0.7V73.2z"/>
					<path class="st3" d="M164.9,73v-5.8c0-1.7,0.9-2.6,2.6-2.6h4.7l0.9,0.7v1h-5.6c-0.5,0-0.7,0.2-0.7,0.7v6.1
						c0,0.5,0.2,0.7,0.7,0.7h4v-3.1h-2.3v-1.8h4.3v6.6h-6C165.7,75.7,164.9,74.8,164.9,73z"/>
					<path class="st3" d="M177.1,75.7v-11h2v11H177.1z"/>
					<path class="st3" d="M183.1,75.7v-11h7.4v1.8H185v2.7h5V71h-5v2.9h5.5v1.8H183.1z"/>
					<path class="st3" d="M193.4,74.9v-1h4.9c0.5,0,0.7-0.2,0.7-0.7V72c0-0.4-0.2-0.6-0.5-0.7l-3.2-0.7c-1.2-0.2-1.9-1.1-1.9-2.5
						v-0.9c0-1.7,0.9-2.6,2.6-2.6h3.7l0.9,0.7v1H196c-0.5,0-0.7,0.2-0.7,0.7v1.1c0,0.4,0.2,0.6,0.5,0.7l3.2,0.6
						c1.2,0.3,1.9,1.1,1.9,2.5v1c0,1.7-0.9,2.6-2.6,2.6h-4L193.4,74.9z"/>
				</g>
			</g>
		</g>
	</g>
</g>
<path class="st4" d="M177.1,29.7v1.7h-1.9v-4.9h1.9v1.7h0.8l1.8-1.7h2.5l-2.5,2.4l2.5,2.4h-2.5l-1.8-1.7H177.1z"/>
<path class="st4" d="M188.3,28.7v0.4c0,1.8-1.5,2.4-3.3,2.4c-1.8,0-3.3-0.5-3.3-2.4v-0.4c0-1.8,1.5-2.4,3.3-2.4
	C186.9,26.4,188.3,26.9,188.3,28.7z M186.4,28.9c0-0.8-0.6-0.9-1.4-0.9c-0.8,0-1.4,0.2-1.4,0.9V29c0,0.8,0.6,0.9,1.4,1
	c0.8,0,1.4-0.2,1.4-1V28.9z"/>
<path class="st4" d="M188.9,26.5h5.7v1.2h-3.8v0.6h3.8v1.1h-3.8v0.6h3.8v1.2h-5.7V26.5z"/>
<path class="st4" d="M201.8,29.3c-0.1,1.6-1.6,2.1-3.3,2.1c-1.8,0-3.3-0.5-3.3-2.4v-0.4c0-1.8,1.5-2.4,3.3-2.4
	c1.7,0,3.2,0.5,3.3,2.1h-1.9c-0.2-0.5-0.7-0.6-1.4-0.6c-0.8,0-1.4,0.1-1.4,0.9V29c0,0.8,0.6,0.9,1.4,0.9c0.7,0,1.2-0.1,1.4-0.6
	H201.8z"/>
<path class="st4" d="M204.2,29.7v1.7h-1.9v-4.9h1.9v1.7h2.8v-1.7h1.9v4.9h-1.9v-1.7H204.2z"/>
</svg>
